<mxfile host="app.diagrams.net" modified="2024-04-02T20:51:15.542Z" agent="Mozilla/5.0 (Windows NT 10.0; Win64; x64) AppleWebKit/537.36 (KHTML, like Gecko) Chrome/123.0.0.0 Safari/537.36" etag="cVbYiIdbEbI9suiKtj9O" version="24.0.7" type="device">
  <diagram name="Page-1" id="kFhJm-ovSbSL3sInfbou">
    <mxGraphModel dx="988" dy="1696" grid="1" gridSize="10" guides="1" tooltips="1" connect="1" arrows="1" fold="1" page="1" pageScale="1" pageWidth="827" pageHeight="1169" math="0" shadow="0">
      <root>
        <mxCell id="0" />
        <mxCell id="1" parent="0" />
        <mxCell id="2BzcFOgH7L5V7H1uHerM-3" value="" style="edgeStyle=orthogonalEdgeStyle;rounded=0;orthogonalLoop=1;jettySize=auto;html=1;" edge="1" parent="1" source="2BzcFOgH7L5V7H1uHerM-1" target="2BzcFOgH7L5V7H1uHerM-2">
          <mxGeometry relative="1" as="geometry" />
        </mxCell>
        <mxCell id="2BzcFOgH7L5V7H1uHerM-5" value="" style="edgeStyle=orthogonalEdgeStyle;rounded=0;orthogonalLoop=1;jettySize=auto;html=1;" edge="1" parent="1" source="2BzcFOgH7L5V7H1uHerM-1" target="2BzcFOgH7L5V7H1uHerM-4">
          <mxGeometry relative="1" as="geometry" />
        </mxCell>
        <mxCell id="2BzcFOgH7L5V7H1uHerM-1" value="Hotel" style="html=1;whiteSpace=wrap;" vertex="1" parent="1">
          <mxGeometry x="200" y="120" width="110" height="160" as="geometry" />
        </mxCell>
        <mxCell id="2BzcFOgH7L5V7H1uHerM-2" value="Quartos" style="whiteSpace=wrap;html=1;" vertex="1" parent="1">
          <mxGeometry x="195" y="355" width="120" height="60" as="geometry" />
        </mxCell>
        <mxCell id="2BzcFOgH7L5V7H1uHerM-4" value="Faz reserva" style="ellipse;shape=cloud;whiteSpace=wrap;html=1;" vertex="1" parent="1">
          <mxGeometry x="385" y="160" width="120" height="80" as="geometry" />
        </mxCell>
        <mxCell id="2BzcFOgH7L5V7H1uHerM-7" style="edgeStyle=orthogonalEdgeStyle;rounded=0;orthogonalLoop=1;jettySize=auto;html=1;entryX=0.5;entryY=0;entryDx=0;entryDy=0;" edge="1" parent="1" source="2BzcFOgH7L5V7H1uHerM-6" target="2BzcFOgH7L5V7H1uHerM-1">
          <mxGeometry relative="1" as="geometry" />
        </mxCell>
        <mxCell id="2BzcFOgH7L5V7H1uHerM-8" value="Cliente" style="edgeLabel;html=1;align=center;verticalAlign=middle;resizable=0;points=[];" vertex="1" connectable="0" parent="2BzcFOgH7L5V7H1uHerM-7">
          <mxGeometry x="-0.7733" relative="1" as="geometry">
            <mxPoint as="offset" />
          </mxGeometry>
        </mxCell>
        <mxCell id="2BzcFOgH7L5V7H1uHerM-9" value="Solicita quarto" style="edgeLabel;html=1;align=center;verticalAlign=middle;resizable=0;points=[];" vertex="1" connectable="0" parent="2BzcFOgH7L5V7H1uHerM-7">
          <mxGeometry x="0.2181" relative="1" as="geometry">
            <mxPoint as="offset" />
          </mxGeometry>
        </mxCell>
        <mxCell id="2BzcFOgH7L5V7H1uHerM-6" value="" style="shape=umlActor;verticalLabelPosition=bottom;verticalAlign=top;html=1;outlineConnect=0;" vertex="1" parent="1">
          <mxGeometry x="240" y="-20" width="30" height="60" as="geometry" />
        </mxCell>
        <mxCell id="2BzcFOgH7L5V7H1uHerM-10" value="DB&lt;div&gt;Sql Server&lt;/div&gt;" style="shape=cylinder3;whiteSpace=wrap;html=1;boundedLbl=1;backgroundOutline=1;size=15;" vertex="1" parent="1">
          <mxGeometry x="385" y="290" width="60" height="80" as="geometry" />
        </mxCell>
        <mxCell id="2BzcFOgH7L5V7H1uHerM-11" style="edgeStyle=orthogonalEdgeStyle;rounded=0;orthogonalLoop=1;jettySize=auto;html=1;exitX=1;exitY=0.75;exitDx=0;exitDy=0;entryX=0;entryY=0.564;entryDx=0;entryDy=0;entryPerimeter=0;" edge="1" parent="1" source="2BzcFOgH7L5V7H1uHerM-1" target="2BzcFOgH7L5V7H1uHerM-10">
          <mxGeometry relative="1" as="geometry" />
        </mxCell>
      </root>
    </mxGraphModel>
  </diagram>
</mxfile>
